<?xml version="1.0" encoding="UTF-8"?>
<svg version="1.1" xmlns="http://www.w3.org/2000/svg" width="2816" height="1536">
<path d="M0 0 C2.2232758 1.43366721 4.33988514 2.94398791 6.44921875 4.5390625 C7.33609375 5.1578125 8.22296875 5.7765625 9.13671875 6.4140625 C19.77864759 16.19313224 24.91014589 29.85135706 25.62890625 44.1015625 C25.63555818 46.92197935 25.58850213 49.72244299 25.44921875 52.5390625 C26.00391846 52.70921875 26.55861816 52.879375 27.13012695 53.0546875 C32.56955623 54.78591205 37.59756052 56.86288589 42.63671875 59.5390625 C43.72811157 60.11793213 43.72811157 60.11793213 44.84155273 60.70849609 C52.3874967 64.84778801 58.90588782 69.98483973 65.44921875 75.5390625 C66.24070312 76.19003906 67.0321875 76.84101563 67.84765625 77.51171875 C72.54567675 81.46273599 76.57173589 85.78755686 80.44921875 90.5390625 C81.22265625 91.47492188 81.99609375 92.41078125 82.79296875 93.375 C95.0261165 108.50591192 104.14270707 126.19979673 109.26171875 144.9765625 C109.45668945 145.67821533 109.65166016 146.37986816 109.85253906 147.1027832 C113.60588071 161.89604642 113.74072737 177.07084717 113.754179 192.22826195 C113.75789701 195.59608 113.77476217 198.96361759 113.79493713 202.33137512 C113.84988328 211.89216924 113.88116835 221.45299981 113.90551758 231.01391602 C113.92138626 236.89505224 113.9515734 242.77597933 113.99028206 248.65700722 C114.00191165 250.88768613 114.00786223 253.11840233 114.00796318 255.34911156 C114.00815516 258.45716724 114.0264096 261.56464201 114.04858398 264.67260742 C114.04400681 265.58745407 114.03942963 266.50230072 114.03471375 267.44487 C114.10376474 273.53087152 115.14460974 277.72896142 119.10546875 282.55859375 C123.78178288 287.1061111 128.69553406 291.22989768 133.78125 295.3125 C136.90361927 297.91828402 139.72337012 300.71896146 142.546875 303.640625 C144.47273106 305.56252653 146.48701638 307.29512403 148.57421875 309.0390625 C158.6619055 317.80150413 162.73121841 328.50191234 164.44921875 341.5390625 C164.68515801 345.52392461 164.6892006 349.48602147 164.63671875 353.4765625 C164.62737305 354.52763184 164.61802734 355.57870117 164.60839844 356.66162109 C164.5725779 359.62140784 164.5166789 362.57984609 164.44921875 365.5390625 C164.4352002 366.25497559 164.42118164 366.97088867 164.40673828 367.70849609 C164.24359935 374.05409608 163.86212242 378.62182699 159.44921875 383.5390625 C155.86626364 386.68772002 152.82408981 387.65779118 148.10224915 387.69728088 C147.21463898 387.7070697 146.32702881 387.71685852 145.41252136 387.72694397 C144.44147964 387.73269943 143.47043793 387.7384549 142.4699707 387.74438477 C141.44540771 387.75428436 140.42084473 387.76418396 139.36523438 387.77438354 C135.9726799 387.80601587 132.58011141 387.83076291 129.1875 387.85546875 C126.837658 387.87603677 124.48781972 387.8970332 122.13798523 387.91844177 C115.94842533 387.97367807 109.75883196 388.02308052 103.56921387 388.07128906 C97.25509659 388.12149268 90.94102802 388.1771847 84.62695312 388.23242188 C72.23441659 388.34002252 59.8418378 388.4414633 47.44921875 388.5390625 C47.31510086 389.07502548 47.18098297 389.61098846 47.0428009 390.16319275 C46.42072449 392.63269296 45.78855752 395.09950673 45.15625 397.56640625 C44.94552856 398.40925171 44.73480713 399.25209717 44.5177002 400.1204834 C41.40227305 412.19385852 35.79974762 422.24951833 27.44921875 431.5390625 C26.93101562 432.15007812 26.4128125 432.76109375 25.87890625 433.390625 C14.30543507 446.12725911 -2.74770019 452.94928348 -19.55078125 454.5390625 C-20.29457031 454.61125 -21.03835938 454.6834375 -21.8046875 454.7578125 C-40.61713031 455.61454614 -58.58788393 447.28442042 -72.67578125 435.4140625 C-86.89061962 422.07919031 -91.98122962 406.57667118 -95.55078125 387.5390625 C-128.55078125 387.5390625 -161.55078125 387.5390625 -195.55078125 387.5390625 C-195.88078125 386.8790625 -196.21078125 386.2190625 -196.55078125 385.5390625 C-195.06191406 384.88164063 -195.06191406 384.88164063 -193.54296875 384.2109375 C-184.70038884 380.14635343 -177.34289289 375.48589211 -170.125 368.95703125 C-169.59627289 368.48028458 -169.06754578 368.0035379 -168.52279663 367.51234436 C-166.43318906 365.50599273 -166.43318906 365.50599273 -164.47320557 362.84049988 C-160.05779676 357.52002225 -156.48141321 354.02676032 -149.40584373 353.34182072 C-145.02147125 353.16948431 -140.65854106 353.25367102 -136.2734375 353.359375 C-134.17588214 353.36775051 -132.07829936 353.37058966 -129.98072815 353.36868286 C-125.06868818 353.37296376 -120.15812052 353.41093639 -115.24639893 353.46643066 C-105.36568109 353.57176982 -95.48597754 353.52441153 -85.60498047 353.48339844 C-64.25596146 353.40165173 -42.90739859 353.3984637 -21.55825293 353.4104836 C-14.11540947 353.41427992 -6.6725793 353.412904 0.77026367 353.40869141 C92.21708672 353.35810849 92.21708672 353.35810849 130.44921875 354.5390625 C130.32159405 352.27428704 130.18434941 350.01005211 130.04296875 347.74609375 C129.96755859 346.48514893 129.89214844 345.2242041 129.81445312 343.92504883 C129.35139298 339.63214702 128.39234008 337.70291793 125.44921875 334.5390625 C124.82917969 333.86875 124.20914062 333.1984375 123.5703125 332.5078125 C117.45038777 326.1141881 110.61977958 320.65493902 103.70654297 315.15185547 C90.60817883 304.66264338 82.13008675 293.63679626 79.44921875 276.5390625 C79.29455962 273.16603207 79.29518552 269.79509379 79.29150391 266.41894531 C79.28642319 265.40189011 79.28134247 264.3848349 79.27610779 263.33695984 C79.26541663 261.12933459 79.25679154 258.92169858 79.24998856 256.71405792 C79.23815793 253.20561672 79.21868983 249.69729631 79.1968689 246.18890381 C79.1354248 236.21337997 79.08142654 226.23786666 79.04785156 216.26220703 C79.02674658 210.15494282 78.99131046 204.04789639 78.94709396 197.94075775 C78.93304953 195.62706846 78.92423803 193.31334061 78.92103958 190.9996109 C78.87523569 161.01366889 73.28279648 133.27587082 52.44921875 110.5390625 C51.62808594 109.62511719 50.80695313 108.71117187 49.9609375 107.76953125 C37.20392757 94.25655036 21.6945789 86.3108152 4.26171875 80.4140625 C-0.89810085 78.59340543 -4.22073424 76.30554849 -6.65258789 71.24731445 C-7.64907741 68.24267782 -7.8208773 65.80562055 -7.859375 62.64453125 C-7.88451172 61.52369141 -7.90964844 60.40285156 -7.93554688 59.24804688 C-7.97052684 56.91216225 -8.0018147 54.57621924 -8.02929688 52.24023438 C-8.21809953 44.20460933 -8.61269316 37.82692298 -14.17578125 31.6015625 C-18.36139941 29.04368473 -21.66363091 28.21608561 -26.55078125 28.5390625 C-29.1247299 29.28297829 -31.14778889 30.28950647 -33.55078125 31.5390625 C-34.54078125 31.8690625 -35.53078125 32.1990625 -36.55078125 32.5390625 C-39.85971207 38.56728237 -39.98246833 45.33463745 -40.05078125 52.0390625 C-40.13360843 60.16795876 -40.51625034 67.84841679 -45.86328125 74.3515625 C-50.81457799 78.38168776 -55.55497097 81.09232166 -61.55078125 83.2890625 C-74.04586908 88.09331525 -84.42746464 94.72861352 -94.55078125 103.5390625 C-95.53433594 104.32410156 -96.51789063 105.10914063 -97.53125 105.91796875 C-111.92167132 118.40952465 -120.34544598 136.56888497 -125.55078125 154.5390625 C-129.45929324 152.95474797 -132.07445481 150.27271155 -134.97265625 147.3125 C-135.72993011 146.55098129 -135.72993011 146.55098129 -136.50250244 145.77407837 C-138.10670221 144.15872408 -139.70378981 142.53654041 -141.30078125 140.9140625 C-142.39016232 139.81464552 -143.48000115 138.71568191 -144.5703125 137.6171875 C-147.2358001 134.9297023 -149.89493268 132.23607229 -152.55078125 129.5390625 C-150.74804118 123.58307676 -148.58527162 118.18593334 -145.48828125 112.7890625 C-145.09688965 112.10295898 -144.70549805 111.41685547 -144.30224609 110.70996094 C-140.29159993 103.84592205 -135.67967896 97.60275557 -130.55078125 91.5390625 C-130.11507813 91.02359863 -129.679375 90.50813477 -129.23046875 89.97705078 C-116.76123898 75.42505859 -101.88455226 64.59526957 -84.86328125 55.9765625 C-84.17975586 55.62964355 -83.49623047 55.28272461 -82.79199219 54.92529297 C-79.86084775 53.48627364 -77.85895162 52.5390625 -74.55078125 52.5390625 C-74.60298828 51.24935547 -74.60298828 51.24935547 -74.65625 49.93359375 C-75.00605763 34.65866046 -71.92957761 20.67465026 -61.29296875 9.15625 C-44.98528194 -5.98137857 -19.87200005 -11.38151305 0 0 Z M-61.55078125 387.5390625 C-59.90905182 399.03116848 -54.74600779 407.83691657 -45.57421875 415.10546875 C-36.71813906 421.01540241 -27.44561159 422.95942178 -16.9453125 421.0703125 C-6.68191935 418.39705661 2.7250571 411.78522978 8.1796875 402.63671875 C10.91038949 397.3893603 12.46077545 393.46972231 13.44921875 387.5390625 C-11.30078125 387.5390625 -36.05078125 387.5390625 -61.55078125 387.5390625 Z " fill="#FDFDFD" transform="translate(1645.55078125,432.4609375)"/>
<path d="M0 0 C2.06900013 -0.00543759 4.13799637 -0.01256932 6.20698547 -0.02124023 C11.76285084 -0.03928202 17.31841495 -0.03248618 22.87428474 -0.01972389 C28.72784274 -0.00949587 34.58137736 -0.01901647 40.43493652 -0.02526855 C50.25924238 -0.03251671 60.08342739 -0.02303201 69.90771484 -0.00390625 C81.21631796 0.0178569 92.52463245 0.01080352 103.83322859 -0.01121187 C113.59609659 -0.02944701 123.35887843 -0.03188476 133.12175798 -0.0214572 C138.92925772 -0.01526664 144.73662245 -0.01426287 150.54411316 -0.02760315 C156.00765982 -0.03927996 161.47083954 -0.03092312 166.93434715 -0.00802612 C168.92230309 -0.00280152 170.91029069 -0.00414334 172.89823341 -0.01307678 C190.36811362 -0.08425886 207.66722449 1.54601831 223.49414062 9.51757812 C224.42355469 9.97003906 225.35296875 10.4225 226.31054688 10.88867188 C233.04231095 14.34349934 238.81981482 18.52712872 244.49414062 23.51757812 C245.244375 24.17242188 245.99460937 24.82726562 246.76757812 25.50195312 C262.07533047 39.78918865 271.76994197 60.67726394 273.49414062 81.51757812 C273.61135488 86.16425986 273.58832438 90.80731426 273.55664062 95.45507812 C273.55212891 96.71126953 273.54761719 97.96746094 273.54296875 99.26171875 C273.53123743 102.34705475 273.51482162 105.43229129 273.49414062 108.51757812 C269.30953088 110.31604896 265.12096966 112.10513107 260.93164062 113.89257812 C259.75021484 114.40046875 258.56878906 114.90835938 257.3515625 115.43164062 C256.20107422 115.92148437 255.05058594 116.41132812 253.86523438 116.91601562 C252.81263428 117.36638184 251.76003418 117.81674805 250.67553711 118.28076172 C247.30799155 119.58994642 243.97992845 120.57651144 240.49414062 121.51757812 C240.47226685 119.99173096 240.47226685 119.99173096 240.44995117 118.43505859 C240.39113759 114.59163558 240.31392652 110.74874886 240.23168945 106.90576172 C240.19882452 105.25546089 240.17067875 103.605058 240.14770508 101.95458984 C239.87665901 82.9813653 237.5897161 66.06947662 223.83789062 51.76757812 C212.26913295 40.66157076 198.85869142 35.25174922 182.84741211 35.18286133 C181.43753006 35.16543869 181.43753006 35.16543869 179.99916553 35.14766407 C176.87120689 35.11170125 173.74332384 35.08980098 170.61523438 35.06835938 C168.37302034 35.04643052 166.13081249 35.02386235 163.88861084 35.0007019 C157.82987022 34.94154156 151.77110614 34.89638838 145.71221542 34.85577011 C141.93333937 34.83008967 138.15449245 34.8016575 134.37564087 34.77261353 C97.93315101 34.49848798 61.49144159 34.43153768 25.04869461 34.6842308 C21.69122734 34.70501877 18.33379764 34.71877847 14.97628784 34.73062134 C9.70274131 34.75040899 4.42972496 34.79037621 -0.84355927 34.84625626 C-2.76295918 34.86379543 -4.68243016 34.87498471 -6.60190582 34.87908554 C-25.21806506 34.92932825 -39.28033897 39.0087309 -53.18164062 52.03710938 C-65.97893962 65.69473099 -68.81778139 82.88271177 -68.78051758 100.92089844 C-68.78562851 102.21514236 -68.79073944 103.50938629 -68.79600525 104.84284973 C-68.8092822 108.36171764 -68.80998648 111.88047739 -68.80744195 115.39936543 C-68.80636412 118.35356736 -68.81127637 121.30774813 -68.81604737 124.26194549 C-68.82710432 131.24186682 -68.82760208 138.22173432 -68.8215332 145.20166016 C-68.81550161 152.36291342 -68.82779245 159.52396979 -68.84910327 166.68518949 C-68.86681534 172.86819738 -68.87270546 179.05114316 -68.86946553 185.23417544 C-68.86766714 188.91163672 -68.87014185 192.58895765 -68.88418007 196.26639557 C-68.89928602 200.37661675 -68.88970508 204.48644681 -68.87817383 208.59667969 C-68.88581757 209.78781876 -68.8934613 210.97895782 -68.90133667 212.20619202 C-68.79558048 229.40375872 -64.98828518 244.64151136 -52.78320312 257.33398438 C-40.76565842 268.85681026 -25.67890942 272.84818369 -9.38085938 273.89257812 C-4.61299259 274.6615889 -2.74502671 275.96991867 0.49414062 279.51757812 C4.02292421 285.79149464 3.88672611 291.49081389 3.78710938 298.57617188 C3.78286453 299.72046158 3.77861969 300.86475128 3.77424622 302.04371643 C3.75751866 305.68108123 3.71987627 309.31788214 3.68164062 312.95507812 C3.66658618 315.42837739 3.65289911 317.90168538 3.640625 320.375 C3.60763449 326.42271686 3.55749376 332.47010719 3.49414062 338.51757812 C9.32022498 333.76571474 15.14026056 329.01135824 20.86914062 324.14257812 C21.40458496 323.68834473 21.9400293 323.23411133 22.49169922 322.76611328 C24.15995484 321.3508448 25.82719252 319.9343863 27.49414062 318.51757812 C34.51144311 312.55328234 41.55302121 306.630801 48.69726562 300.81835938 C51.19561669 298.76315158 53.66748616 296.68018174 56.12939453 294.58154297 C61.56761911 289.94581418 67.05908814 285.38168103 72.61914062 280.89257812 C73.25883789 280.37139404 73.89853516 279.85020996 74.55761719 279.31323242 C78.9099993 275.82116417 81.70019631 274.38951003 87.2409668 274.40405273 C88.2017363 274.40412827 89.1625058 274.4042038 90.15238953 274.40428162 C91.18684708 274.4094429 92.22130463 274.41460419 93.28710938 274.41992188 C94.87885735 274.4220443 94.87885735 274.4220443 96.50276184 274.42420959 C99.89574998 274.42981206 103.28867239 274.44236499 106.68164062 274.45507812 C108.9804678 274.46009281 111.279296 274.46465577 113.578125 274.46875 C119.21684263 274.47893187 124.85541796 274.49850691 130.49414062 274.51757812 C130.16414063 285.73757813 129.83414062 296.95757813 129.49414062 308.51757812 C112.55664063 308.70507812 112.55664063 308.70507812 107.26782227 308.7253418 C95.62941971 308.8873927 88.69945827 310.98500021 80.11914062 319.26757812 C76.56306273 322.6115737 72.9794655 325.82531868 69.18164062 328.89257812 C63.11444007 333.79632403 57.20617792 338.87326058 51.296875 343.96484375 C48.34518164 346.50720152 45.38879715 349.04407866 42.43164062 351.58007812 C41.85615479 352.07378906 41.28066895 352.5675 40.68774414 353.07617188 C36.67937254 356.51143594 32.65309069 359.92490997 28.61914062 363.33007812 C21.95762045 368.95847556 15.41058769 374.67343096 8.99414062 380.58007812 C-4.54679709 392.91737694 -4.54679709 392.91737694 -15.77929688 392.79882812 C-20.88460262 392.27220633 -23.50561985 389.62595166 -26.81835938 385.95507812 C-30.07244228 381.25473615 -29.85005786 376.55994077 -30.09570312 371.04101562 C-30.13888168 370.0739267 -30.18206024 369.10683777 -30.22654724 368.11044312 C-30.70178706 355.78280652 -30.37032749 343.47079207 -30.06835938 331.14257812 C-30.01494889 328.73764513 -29.96221101 326.3326971 -29.91015625 323.92773438 C-29.78311022 318.12415347 -29.64789246 312.32081062 -29.50585938 306.51757812 C-30.7560083 306.3713501 -32.00615723 306.22512207 -33.29418945 306.07446289 C-53.53996753 303.70634488 -72.17814365 289.0500321 -84.50585938 273.51757812 C-87.05324475 269.96065398 -89.32622163 266.30962259 -91.50585938 262.51757812 C-92.03050781 261.628125 -92.55515625 260.73867188 -93.09570312 259.82226562 C-96.41894333 253.75079878 -98.53324777 247.60903257 -100.31835938 240.95507812 C-100.52541504 240.18808594 -100.7324707 239.42109375 -100.94580078 238.63085938 C-103.53386183 228.33966465 -103.65693973 217.92088646 -103.66699219 207.36132812 C-103.67195709 206.09301651 -103.676922 204.8247049 -103.68203735 203.51795959 C-103.69502955 200.06909857 -103.7015805 196.62025689 -103.70604801 193.17137527 C-103.70900093 191.00543214 -103.71310969 188.83949403 -103.71755219 186.67355347 C-103.73119398 179.86426669 -103.74087613 173.05499173 -103.74475408 166.24569225 C-103.7492233 158.44606625 -103.76673229 150.64661649 -103.79575467 142.84704399 C-103.81753662 136.77778215 -103.8274671 130.70856929 -103.82879519 124.63926888 C-103.82983174 121.03320617 -103.83548835 117.42730981 -103.85361481 113.82128906 C-103.99830875 83.27546405 -101.84526038 52.72947645 -79.58886719 29.54125977 C-78.24299466 28.18485066 -76.87485163 26.8506493 -75.50585938 25.51757812 C-74.7659375 24.78023437 -74.02601563 24.04289063 -73.26367188 23.28320312 C-52.74392897 3.89091862 -27.05273778 -0.12156996 0 0 Z " fill="#FDFDFD" transform="translate(1094.505859375,492.482421875)"/>
<path d="M0 0 C3.75486638 2.57723177 6.80671355 5.768979 10 9 C11.86661123 10.71749535 13.74201489 12.42547217 15.625 14.125 C21.12959515 19.16173155 26.56650295 24.2703955 32.00415039 29.37915039 C36.69230536 33.78151713 41.40499815 38.15575679 46.13647461 42.51147461 C50.91826561 46.91643369 55.66937862 51.35378861 60.41870117 55.79370117 C64.3895422 59.50352402 68.37575121 63.19584115 72.375 66.875 C78.25950889 72.28911567 84.07598947 77.77400125 89.88720703 83.26660156 C93.79053877 86.94818345 97.72952234 90.5718804 101.75 94.125 C111.39132432 102.73156549 111.39132432 102.73156549 112.30859375 109.1640625 C112.6890609 116.42752623 110.78186094 120.59148389 106 126 C103.30202568 128.66220572 100.46200333 131.12830675 97.58984375 133.59960938 C94.3607997 136.44386562 91.25419451 139.42194731 88.125 142.375 C86.74776803 143.66836519 85.37016624 144.96133671 83.9921875 146.25390625 C82.05168109 148.07458802 80.11127202 149.89535911 78.17285156 151.71826172 C76.5362821 153.25445368 74.89410866 154.78438515 73.25 156.3125 C72.32703125 157.17488281 71.4040625 158.03726563 70.453125 158.92578125 C68.33269559 160.71869211 66.53968213 161.92597555 64 163 C64 163.66 64 164.32 64 165 C62.49609375 166.48046875 62.49609375 166.48046875 60.4375 168.1875 C57.6746132 170.53279758 55.03320243 172.90829405 52.5 175.5 C50.16919643 177.8764299 47.77252913 180.10992665 45.25 182.28125 C41.24476911 185.76421938 37.3594615 189.35697066 33.5 193 C32.82001953 193.6386499 32.14003906 194.2772998 31.43945312 194.93530273 C27.84525129 198.31208671 24.26170856 201.69972115 20.6875 205.09765625 C19.6346582 206.09442383 19.6346582 206.09442383 18.56054688 207.11132812 C17.23041108 208.37085956 15.90335374 209.63365374 14.58007812 210.90039062 C1.92691882 222.8631362 1.92691882 222.8631362 -4.984375 223.23046875 C-10.0746349 222.64844291 -13.67365163 220.44415312 -17.09179688 216.72241211 C-20.32703423 211.71867241 -19.48792172 205.67532985 -19.390625 199.9453125 C-19.38496521 198.68862762 -19.37930542 197.43194275 -19.37347412 196.13717651 C-19.35492046 192.8126345 -19.31904929 189.48921038 -19.2746582 186.16497803 C-19.23357713 182.7663331 -19.21543592 179.3675722 -19.1953125 175.96875 C-19.15126606 169.31219333 -19.08436781 162.65616115 -19 156 C-69.48777666 156.94312348 -115.08347261 158.36288738 -152.80151367 196.44384766 C-169.39355295 213.67517983 -179.73995191 234.72210763 -185 258 C-185.33 258 -185.66 258 -186 258 C-186.98435148 253.04322808 -187.17608679 248.2919466 -187.203125 243.26171875 C-187.20882507 242.42268509 -187.21452515 241.58365143 -187.22039795 240.7191925 C-187.22981743 238.94326015 -187.23636976 237.16731055 -187.24023438 235.39135742 C-187.24983249 232.73388043 -187.28083907 230.07721418 -187.3125 227.41992188 C-187.40346442 212.90067941 -185.69369162 199.16595474 -181.375 185.25 C-181.12266602 184.42910889 -180.87033203 183.60821777 -180.61035156 182.76245117 C-172.45496597 157.15444344 -159.51783069 134.50467433 -141 115 C-140.53110352 114.49855469 -140.06220703 113.99710938 -139.57910156 113.48046875 C-115.22575917 87.56662093 -80.47694667 69.98791955 -45 66 C-43.56720703 65.83564453 -43.56720703 65.83564453 -42.10546875 65.66796875 C-36.59887625 65.12669164 -31.14989863 64.95696612 -25.6171875 64.9765625 C-24.37308105 64.97994629 -23.12897461 64.98333008 -21.84716797 64.98681641 C-20.90760254 64.99116699 -19.96803711 64.99551758 -19 65 C-19.00888245 64.32427948 -19.01776489 63.64855896 -19.0269165 62.95236206 C-19.1154911 55.91201242 -19.17577671 48.87182138 -19.21972656 41.83105469 C-19.23982715 39.20436167 -19.26711204 36.57771331 -19.30175781 33.95117188 C-19.35034164 30.17306488 -19.37298509 26.39555016 -19.390625 22.6171875 C-19.41127014 21.44509735 -19.43191528 20.2730072 -19.45318604 19.06539917 C-19.45492574 12.72735467 -19.33793909 8.77568557 -15 4 C-10.4117228 -0.05475659 -5.94801072 -1.71595771 0 0 Z " fill="#FEFEFD" transform="translate(1444,562)"/>
<path d="M0 0 C1.01452265 -0.00445668 1.01452265 -0.00445668 2.0495407 -0.0090034 C4.31483393 -0.01767178 6.5800742 -0.01919707 8.84538269 -0.02069092 C10.4700634 -0.02532039 12.09474302 -0.03034523 13.71942139 -0.03573608 C18.13273651 -0.04884918 22.54603643 -0.05530285 26.95936799 -0.05974674 C29.71732618 -0.06267908 32.47528022 -0.06678418 35.23323631 -0.07125092 C43.86431191 -0.08492265 52.49537803 -0.09459103 61.12646371 -0.09845281 C71.08607263 -0.10293365 81.04554432 -0.1204841 91.00511152 -0.1494534 C98.70630226 -0.17107546 106.40745441 -0.18115736 114.10867518 -0.18249393 C118.70707424 -0.18354153 123.30534424 -0.18943989 127.90371132 -0.20731354 C132.23016412 -0.2238034 136.55639096 -0.22594531 140.882864 -0.21717453 C142.46830221 -0.21640466 144.05375262 -0.2207403 145.63916016 -0.23063278 C147.80877989 -0.2433737 149.97760186 -0.23746463 152.1472168 -0.22705078 C153.35971005 -0.22851734 154.57220331 -0.2299839 155.82143879 -0.2314949 C162.35611676 0.47449922 167.00925476 3.03464697 171.26408386 8.14044189 C173.60218928 12.25996097 173.83987353 16.49756652 173.26408386 21.14044189 C171.52867804 26.05742507 168.77837293 29.51433391 164.26408386 32.14044189 C156.31269259 34.51134271 148.52012866 34.41776795 140.28019714 34.38336182 C138.7794944 34.38443649 137.27879207 34.38637791 135.77809143 34.38911438 C131.72425458 34.39393718 127.67052884 34.38633834 123.61670542 34.37616134 C119.35910082 34.36733328 115.10149922 34.36913923 110.84388733 34.36952209 C103.69373229 34.36858725 96.54361983 34.35992916 89.39347839 34.34625244 C81.14957422 34.33054094 72.90571667 34.32525407 64.6617986 34.32598799 C55.85570192 34.32666587 47.049623 34.31971014 38.2435317 34.31054139 C35.71975352 34.30841935 33.19597824 34.30770147 30.67219925 34.30730247 C26.69126585 34.30629068 22.71037089 34.30012645 18.72945023 34.29013634 C17.27631364 34.28723962 15.82317262 34.28598016 14.37003326 34.28656387 C-9.8681683 34.29261073 -9.8681683 34.29261073 -15.73591614 29.14044189 C-19.73855232 24.70508828 -21.11354869 21.38260579 -21.01325989 15.33184814 C-20.32413436 9.8867859 -17.94179063 6.12021492 -13.73591614 2.70294189 C-9.01013238 0.24159619 -5.32584955 0.01307834 0 0 Z " fill="#FCFCFC" transform="translate(1103.7359161376953,592.8595581054688)"/>
<path d="M0 0 C0.87027832 0.35787598 1.74055664 0.71575195 2.63720703 1.08447266 C20.2434032 8.46375407 35.56797172 18.19490999 49.375 31.4375 C50.31859375 32.30632812 51.2621875 33.17515625 52.234375 34.0703125 C75.75819923 56.16228516 90.05909362 87.70070567 94.375 119.4375 C94.50390625 120.34113281 94.6328125 121.24476563 94.765625 122.17578125 C95.05954239 124.6005997 95.24542885 126.99851372 95.375 129.4375 C95.43945312 130.51 95.50390625 131.5825 95.5703125 132.6875 C95.80324146 139.52008273 95.73009603 144.02305629 91.375 149.4375 C87.56974527 152.60854561 83.27904444 153.57761556 78.375 153.4375 C72.50204048 151.74529132 69.75781959 149.31274 66.375 144.4375 C65.5199854 141.72280289 65.19255268 139.10064249 64.98046875 136.26953125 C62.05620265 100.76109522 48.51825841 70.18447508 21.375 46.4375 C8.95493023 36.40216149 -5.90130755 29.84417043 -20.890625 24.640625 C-24.70203509 22.96360456 -27.62214969 20.97824275 -29.9140625 17.45703125 C-31.41404525 13.19609123 -31.33708566 8.74501807 -30.0078125 4.4375 C-27.95677042 0.22651095 -25.19033845 -1.86613183 -21.11328125 -4.03125 C-13.74244652 -5.604929 -6.72316614 -2.80737435 0 0 Z " fill="#FCFCFC" transform="translate(1762.625,406.5625)"/>
<path d="M0 0 C12.22705752 4.51483359 23.30222701 10.42452477 33.0390625 19.12890625 C33.86019531 19.8559375 34.68132812 20.58296875 35.52734375 21.33203125 C53.33460626 38.05922652 64.01243349 61.78784957 65.0625 86.1328125 C65.02538286 90.87762039 64.84055685 94.19019734 61.44921875 97.83984375 C57.66005022 101.2524987 54.95987753 102.98393908 49.7265625 103.37890625 C44.58562522 103.03036813 41.56661209 101.52916004 37.7890625 98.06640625 C35.30943119 93.90416797 34.79298466 89.87560017 34.0390625 85.12890625 C30.87880277 66.22480715 25.2656887 50.93008894 9.0390625 39.12890625 C2.77637928 35.13019772 -3.51054556 31.53692095 -10.5234375 29.00390625 C-15.78656843 27.06485801 -18.4358823 24.17901666 -20.9609375 19.12890625 C-21.55200237 13.44559017 -21.23337166 8.98113622 -17.9609375 4.12890625 C-12.1852809 -1.08327165 -7.48727202 -2.20271987 0 0 Z " fill="#FCFDFC" transform="translate(1736.9609375,456.87109375)"/>
<path d="M0 0 C0.86920578 -0.00700928 1.73841156 -0.01401855 2.63395691 -0.02124023 C5.48929375 -0.03875629 8.34362879 -0.02722135 11.19897461 -0.01367188 C13.19242034 -0.01636838 15.18586479 -0.02025213 17.17930603 -0.02526855 C21.34948292 -0.03115474 25.51931627 -0.02262803 29.68945312 -0.00390625 C35.02827537 0.01889748 40.36629384 0.00574546 45.70508671 -0.01819611 C49.81870049 -0.03266515 53.93212437 -0.02804324 58.04574394 -0.01768494 C60.0140842 -0.01502149 61.98244184 -0.01827395 63.9507618 -0.02760315 C66.70331495 -0.03778857 69.45457421 -0.02224066 72.20703125 0 C73.4205275 -0.01214539 73.4205275 -0.01214539 74.65853882 -0.02453613 C79.90744995 0.05383768 82.8564385 1.07862579 87.03881836 4.51757812 C91.64271752 9.74362582 92.40210426 12.82503542 92.31225586 19.68945312 C91.88870344 24.07019529 90.79563015 26.05389152 88.03881836 29.51757812 C82.5883041 33.32196825 78.65413625 34.10111202 72.09350586 34.03515625 C70.79210663 34.04567017 70.79210663 34.04567017 69.4644165 34.05639648 C66.61388566 34.07391417 63.76435823 34.06237598 60.91381836 34.04882812 C58.92276826 34.05152483 56.93171944 34.05540874 54.94067383 34.0604248 C50.77469299 34.06631142 46.609056 34.05778379 42.44311523 34.0390625 C37.11335884 34.01627359 31.78440825 34.02940114 26.4546814 34.05335236 C22.34531627 34.06783288 18.23614098 34.06319398 14.12677002 34.05284119 C12.16204736 34.05018014 10.19730725 34.05342169 8.23260498 34.0627594 C5.48265174 34.07296214 2.73398846 34.05737216 -0.01586914 34.03515625 C-0.82127136 34.04325317 -1.62667358 34.0513501 -2.45648193 34.05969238 C-8.06672812 33.97607548 -11.34218578 32.74157891 -15.96118164 29.51757812 C-19.915956 24.54875905 -20.60849971 20.48192892 -20.34008789 14.16992188 C-19.73736119 9.95083494 -18.63999065 7.88326124 -15.96118164 4.51757812 C-10.50636947 0.70896692 -6.56630164 -0.06588427 0 0 Z " fill="#FEFEFD" transform="translate(1102.961181640625,668.482421875)"/>
</svg>
